# xmcd
# 
# Track frame offsets:
#     150
#     33006
#     51103
#     71992
#     96126
#     124648
#     155241
#     175642
#     199153
#     218497
# 
# Disc length: 3339
# 
# Revision: 1
# Processed by: cddbd v1.5.2PL0 Copyright (c) Steve Scherf et al.
# Submitted via: fre:ac v1.0.27
# 
DISCID=860d090a
DTITLE=Brad Mehldau - Finding Gabriel
DYEAR=2019
DGENRE=Jazz
TTITLE0=The Garden - Brad Mehldau
TTITLE1=Born to Trouble - Brad Mehldau
TTITLE2=Striving After Wind - Brad Mehldau
TTITLE3=O Ephraim - Brad Mehldau
TTITLE4=St. Mark Is Howling in The City of Night - Brad Mehldau
TTITLE5=The Prophet Is a Fool - Brad Mehldau
TTITLE6=Make It All Go Away - Brad Mehldau
TTITLE7=Deep Water - Brad Mehldau
TTITLE8=Proverb of Ashes - Brad Mehldau
TTITLE9=Finding Gabriel - Brad Mehldau
EXTD=YEAR: 2019
EXTT0=
EXTT1=
EXTT2=
EXTT3=
EXTT4=
EXTT5=
EXTT6=
EXTT7=
EXTT8=
EXTT9=
PLAYORDER=
